<svg xmlns="http://www.w3.org/2000/svg" xmlns:xlink="http://www.w3.org/1999/xlink" width="1920" zoomAndPan="magnify" viewBox="0 0 1440 809.999993" height="1080" preserveAspectRatio="xMidYMid meet" version="1.0"><defs><clipPath id="f22442ecab"><path d="M 321.949219 123.871094 L 536.320312 123.871094 L 536.320312 731.808594 L 321.949219 731.808594 Z M 321.949219 123.871094 " clip-rule="nonzero"/></clipPath><clipPath id="9dd7c08ebe"><path d="M 359.449219 123.871094 L 498.820312 123.871094 C 519.53125 123.871094 536.320312 140.660156 536.320312 161.371094 L 536.320312 693.558594 C 536.320312 714.265625 519.53125 731.054688 498.820312 731.054688 L 359.449219 731.054688 C 338.738281 731.054688 321.949219 714.265625 321.949219 693.558594 L 321.949219 161.371094 C 321.949219 140.660156 338.738281 123.871094 359.449219 123.871094 Z M 359.449219 123.871094 " clip-rule="nonzero"/></clipPath><clipPath id="333c17084e"><path d="M 0.949219 0.871094 L 215.320312 0.871094 L 215.320312 608 L 0.949219 608 Z M 0.949219 0.871094 " clip-rule="nonzero"/></clipPath><clipPath id="f2cf887955"><path d="M 38.449219 0.871094 L 177.820312 0.871094 C 198.53125 0.871094 215.320312 17.660156 215.320312 38.371094 L 215.320312 570.558594 C 215.320312 591.265625 198.53125 608.054688 177.820312 608.054688 L 38.449219 608.054688 C 17.738281 608.054688 0.949219 591.265625 0.949219 570.558594 L 0.949219 38.371094 C 0.949219 17.660156 17.738281 0.871094 38.449219 0.871094 Z M 38.449219 0.871094 " clip-rule="nonzero"/></clipPath><clipPath id="3e5e05e47b"><rect x="0" width="216" y="0" height="609"/></clipPath><clipPath id="3e5f7c5484"><path d="M 447 94 L 1068 94 L 1068 715 L 447 715 Z M 447 94 " clip-rule="nonzero"/></clipPath><clipPath id="2fb7a76a76"><path d="M 931.882812 78.820312 L 1083.464844 230.402344 L 583.125 730.742188 L 431.542969 579.160156 Z M 931.882812 78.820312 " clip-rule="nonzero"/></clipPath><clipPath id="8e67af3632"><path d="M 958.398438 105.335938 L 1056.949219 203.886719 C 1071.59375 218.53125 1071.59375 242.273438 1056.949219 256.917969 L 610.0625 703.804688 C 595.417969 718.449219 571.675781 718.449219 557.03125 703.804688 L 458.480469 605.257812 C 443.835938 590.613281 443.835938 566.867188 458.480469 552.222656 L 905.367188 105.335938 C 920.011719 90.691406 943.753906 90.691406 958.398438 105.335938 Z M 958.398438 105.335938 " clip-rule="nonzero"/></clipPath><clipPath id="a19f14ef2a"><path d="M 0 0 L 621 0 L 621 621 L 0 621 Z M 0 0 " clip-rule="nonzero"/></clipPath><clipPath id="84c624bc5a"><path d="M 484.882812 -15.179688 L 636.464844 136.402344 L 136.125 636.742188 L -15.457031 485.160156 Z M 484.882812 -15.179688 " clip-rule="nonzero"/></clipPath><clipPath id="79f29e997f"><path d="M 511.398438 11.335938 L 609.949219 109.886719 C 624.59375 124.53125 624.59375 148.273438 609.949219 162.917969 L 163.0625 609.804688 C 148.417969 624.449219 124.675781 624.449219 110.03125 609.804688 L 11.480469 511.257812 C -3.164062 496.613281 -3.164062 472.867188 11.480469 458.222656 L 458.367188 11.335938 C 473.011719 -3.308594 496.753906 -3.308594 511.398438 11.335938 Z M 511.398438 11.335938 " clip-rule="nonzero"/></clipPath><clipPath id="b82e23ccfc"><rect x="0" width="621" y="0" height="621"/></clipPath><clipPath id="3ac54440d6"><path d="M 416.472656 522.304688 L 626.851562 522.304688 L 626.851562 731.050781 L 416.472656 731.050781 Z M 416.472656 522.304688 " clip-rule="nonzero"/></clipPath><clipPath id="2cd9c926ac"><path d="M 626.851562 597.304688 L 626.851562 656.050781 C 626.851562 697.472656 593.273438 731.050781 551.851562 731.050781 L 491.867188 731.050781 C 450.445312 731.050781 416.867188 697.472656 416.867188 656.050781 L 416.867188 597.304688 C 416.867188 555.882812 450.445312 522.304688 491.867188 522.304688 L 551.851562 522.304688 C 593.273438 522.304688 626.851562 555.882812 626.851562 597.304688 Z M 626.851562 597.304688 " clip-rule="nonzero"/></clipPath><clipPath id="5da266ecdc"><path d="M 0.640625 0.304688 L 210.851562 0.304688 L 210.851562 209.050781 L 0.640625 209.050781 Z M 0.640625 0.304688 " clip-rule="nonzero"/></clipPath><clipPath id="b79b2d0ddf"><path d="M 210.851562 75.304688 L 210.851562 134.050781 C 210.851562 175.472656 177.273438 209.050781 135.851562 209.050781 L 75.867188 209.050781 C 34.445312 209.050781 0.867188 175.472656 0.867188 134.050781 L 0.867188 75.304688 C 0.867188 33.882812 34.445312 0.304688 75.867188 0.304688 L 135.851562 0.304688 C 177.273438 0.304688 210.851562 33.882812 210.851562 75.304688 Z M 210.851562 75.304688 " clip-rule="nonzero"/></clipPath><clipPath id="68e70186e5"><rect x="0" width="211" y="0" height="210"/></clipPath><clipPath id="dc52a646e8"><path d="M 856.382812 520.015625 L 1118 520.015625 L 1118 730.238281 L 856.382812 730.238281 Z M 856.382812 520.015625 " clip-rule="nonzero"/></clipPath><clipPath id="39f0d32412"><path d="M 1042.351562 730.238281 L 931.46875 730.238281 C 911.585938 730.238281 892.515625 722.339844 878.457031 708.28125 C 864.398438 694.222656 856.496094 675.152344 856.496094 655.269531 L 856.496094 595.804688 C 856.496094 575.921875 864.398438 556.851562 878.457031 542.792969 C 892.515625 528.730469 911.585938 520.832031 931.46875 520.832031 L 1042.351562 520.832031 C 1062.238281 520.832031 1081.304688 528.730469 1095.367188 542.792969 C 1109.425781 556.851562 1117.324219 575.921875 1117.324219 595.804688 L 1117.324219 655.269531 C 1117.324219 675.152344 1109.425781 694.222656 1095.367188 708.28125 C 1081.304688 722.339844 1062.238281 730.238281 1042.351562 730.238281 Z M 1042.351562 730.238281 " clip-rule="nonzero"/></clipPath><clipPath id="1c2d1aedab"><path d="M 0.382812 0.800781 L 261.441406 0.800781 L 261.441406 210.238281 L 0.382812 210.238281 Z M 0.382812 0.800781 " clip-rule="nonzero"/></clipPath><clipPath id="aed822cd6a"><path d="M 186.351562 210.238281 L 75.46875 210.238281 C 55.585938 210.238281 36.515625 202.339844 22.457031 188.28125 C 8.398438 174.222656 0.496094 155.152344 0.496094 135.269531 L 0.496094 75.804688 C 0.496094 55.921875 8.398438 36.851562 22.457031 22.792969 C 36.515625 8.730469 55.585938 0.832031 75.46875 0.832031 L 186.351562 0.832031 C 206.238281 0.832031 225.304688 8.730469 239.367188 22.792969 C 253.425781 36.851562 261.324219 55.921875 261.324219 75.804688 L 261.324219 135.269531 C 261.324219 155.152344 253.425781 174.222656 239.367188 188.28125 C 225.304688 202.339844 206.238281 210.238281 186.351562 210.238281 Z M 186.351562 210.238281 " clip-rule="nonzero"/></clipPath><clipPath id="474eb51449"><rect x="0" width="262" y="0" height="211"/></clipPath><clipPath id="9e6a77253d"><path d="M 528 463 L 553 463 L 553 483 L 528 483 Z M 528 463 " clip-rule="nonzero"/></clipPath><clipPath id="eca2214ae0"><path d="M 528.574219 463.726562 L 546.496094 458.375 L 552.09375 477.136719 L 534.171875 482.484375 Z M 528.574219 463.726562 " clip-rule="nonzero"/></clipPath><clipPath id="bacd03aab1"><path d="M 552.082031 477.09375 L 534.160156 482.441406 L 528.574219 463.726562 Z M 552.082031 477.09375 " clip-rule="nonzero"/></clipPath><clipPath id="c6295fd9ee"><path d="M 0.480469 0.679688 L 24.238281 0.679688 L 24.238281 19.640625 L 0.480469 19.640625 Z M 0.480469 0.679688 " clip-rule="nonzero"/></clipPath><clipPath id="09097c179a"><path d="M 0.574219 0.726562 L 18.496094 -4.625 L 24.09375 14.136719 L 6.171875 19.484375 Z M 0.574219 0.726562 " clip-rule="nonzero"/></clipPath><clipPath id="13e3ad9a18"><path d="M 24.082031 14.09375 L 6.160156 19.441406 L 0.574219 0.726562 Z M 24.082031 14.09375 " clip-rule="nonzero"/></clipPath><clipPath id="1838eb7d60"><rect x="0" width="25" y="0" height="20"/></clipPath><clipPath id="af65c7046f"><path d="M 525 453 L 556 453 L 556 473 L 525 473 Z M 525 453 " clip-rule="nonzero"/></clipPath><clipPath id="6b7a030a89"><path d="M 534.160156 479.304688 L 525.402344 458.214844 L 546.488281 449.457031 L 555.246094 470.546875 Z M 534.160156 479.304688 " clip-rule="nonzero"/></clipPath><clipPath id="b9660efaf9"><path d="M 555.246094 470.546875 C 549.695312 472.851562 543.328125 472.859375 537.773438 470.5625 C 532.214844 468.265625 527.710938 463.769531 525.402344 458.214844 L 536.160156 453.75 C 537.289062 456.46875 539.496094 458.671875 542.21875 459.796875 C 544.941406 460.921875 548.058594 460.917969 550.78125 459.789062 Z M 555.246094 470.546875 " clip-rule="nonzero"/></clipPath><clipPath id="6ac118eb19"><path d="M 0.359375 0.601562 L 30.359375 0.601562 L 30.359375 20 L 0.359375 20 Z M 0.359375 0.601562 " clip-rule="nonzero"/></clipPath><clipPath id="bdea4ca2d5"><path d="M 9.160156 26.304688 L 0.402344 5.214844 L 21.488281 -3.542969 L 30.246094 17.546875 Z M 9.160156 26.304688 " clip-rule="nonzero"/></clipPath><clipPath id="f295a3bc95"><path d="M 30.246094 17.546875 C 24.695312 19.851562 18.328125 19.859375 12.773438 17.5625 C 7.214844 15.265625 2.710938 10.769531 0.402344 5.214844 L 11.160156 0.75 C 12.289062 3.46875 14.496094 5.671875 17.21875 6.796875 C 19.941406 7.921875 23.058594 7.917969 25.78125 6.789062 Z M 30.246094 17.546875 " clip-rule="nonzero"/></clipPath><clipPath id="8943c30b3f"><rect x="0" width="31" y="0" height="20"/></clipPath><clipPath id="5747e43bc0"><path d="M 596 78 L 1084 78 L 1084 567 L 596 567 Z M 596 78 " clip-rule="nonzero"/></clipPath><clipPath id="a7ad5638ab"><path d="M 931.882812 78.820312 L 1083.464844 230.402344 L 747.707031 566.160156 L 596.125 414.578125 Z M 931.882812 78.820312 " clip-rule="nonzero"/></clipPath><clipPath id="7729dbfbf3"><path d="M 0 0.71875 L 487.601562 0.71875 L 487.601562 488.398438 L 0 488.398438 Z M 0 0.71875 " clip-rule="nonzero"/></clipPath><clipPath id="0602bbdd58"><path d="M 335.882812 0.820312 L 487.464844 152.402344 L 151.707031 488.160156 L 0.125 336.578125 Z M 335.882812 0.820312 " clip-rule="nonzero"/></clipPath><clipPath id="c0c630fb9b"><rect x="0" width="488" y="0" height="489"/></clipPath></defs><g clip-path="url(#f22442ecab)"><g clip-path="url(#9dd7c08ebe)"><g transform="matrix(1, 0, 0, 1, 321, 123)"><g clip-path="url(#3e5e05e47b)"><g clip-path="url(#333c17084e)"><g clip-path="url(#f2cf887955)"><path fill="#ffffff" d="M 0.949219 0.871094 L 215.320312 0.871094 L 215.320312 607.972656 L 0.949219 607.972656 Z M 0.949219 0.871094 " fill-opacity="1" fill-rule="nonzero"/></g></g></g></g></g></g><g clip-path="url(#3e5f7c5484)"><g clip-path="url(#2fb7a76a76)"><g clip-path="url(#8e67af3632)"><g transform="matrix(1, 0, 0, 1, 447, 94)"><g clip-path="url(#b82e23ccfc)"><g clip-path="url(#a19f14ef2a)"><g clip-path="url(#84c624bc5a)"><g clip-path="url(#79f29e997f)"><path fill="#ffffff" d="M 484.882812 -15.179688 L 636.464844 136.402344 L 136.71875 636.152344 L -14.863281 484.570312 Z M 484.882812 -15.179688 " fill-opacity="1" fill-rule="nonzero"/></g></g></g></g></g></g></g></g><g clip-path="url(#3ac54440d6)"><g clip-path="url(#2cd9c926ac)"><g transform="matrix(1, 0, 0, 1, 416, 522)"><g clip-path="url(#68e70186e5)"><g clip-path="url(#5da266ecdc)"><g clip-path="url(#b79b2d0ddf)"><path fill="#ffffff" d="M 210.851562 0.304688 L 210.851562 209.050781 L 0.472656 209.050781 L 0.472656 0.304688 Z M 210.851562 0.304688 " fill-opacity="1" fill-rule="nonzero"/></g></g></g></g></g></g><g clip-path="url(#dc52a646e8)"><g clip-path="url(#39f0d32412)"><g transform="matrix(1, 0, 0, 1, 856, 520)"><g clip-path="url(#474eb51449)"><g clip-path="url(#1c2d1aedab)"><g clip-path="url(#aed822cd6a)"><path fill="#ffffff" d="M 261.324219 0.832031 L 261.324219 210.238281 L 0.382812 210.238281 L 0.382812 0.832031 Z M 261.324219 0.832031 " fill-opacity="1" fill-rule="nonzero"/></g></g></g></g></g></g><g clip-path="url(#9e6a77253d)"><g clip-path="url(#eca2214ae0)"><g clip-path="url(#bacd03aab1)"><g transform="matrix(1, 0, 0, 1, 528, 463)"><g clip-path="url(#1838eb7d60)"><g clip-path="url(#c6295fd9ee)"><g clip-path="url(#09097c179a)"><g clip-path="url(#13e3ad9a18)"><path fill="#ffffff" d="M 0.574219 0.726562 L 18.496094 -4.625 L 24.074219 14.066406 L 6.152344 19.417969 Z M 0.574219 0.726562 " fill-opacity="1" fill-rule="nonzero"/></g></g></g></g></g></g></g></g><g clip-path="url(#af65c7046f)"><g clip-path="url(#6b7a030a89)"><g clip-path="url(#b9660efaf9)"><g transform="matrix(1, 0, 0, 1, 525, 453)"><g clip-path="url(#8943c30b3f)"><g clip-path="url(#6ac118eb19)"><g clip-path="url(#bdea4ca2d5)"><g clip-path="url(#f295a3bc95)"><path fill="#ffffff" d="M 9.160156 26.304688 L 0.402344 5.214844 L 21.488281 -3.542969 L 30.246094 17.546875 Z M 9.160156 26.304688 " fill-opacity="1" fill-rule="nonzero"/></g></g></g></g></g></g></g></g><g clip-path="url(#5747e43bc0)"><g clip-path="url(#a7ad5638ab)"><g transform="matrix(1, 0, 0, 1, 596, 78)"><g clip-path="url(#c0c630fb9b)"><g clip-path="url(#7729dbfbf3)"><g clip-path="url(#0602bbdd58)"><path fill="#ffffff" d="M 335.882812 0.820312 L 487.464844 152.402344 L 151.734375 488.132812 L 0.152344 336.550781 Z M 335.882812 0.820312 " fill-opacity="1" fill-rule="nonzero"/></g></g></g></g></g></g></svg>