<svg xmlns="http://www.w3.org/2000/svg" xmlns:xlink="http://www.w3.org/1999/xlink" width="1920" zoomAndPan="magnify" viewBox="0 0 1440 809.999993" height="1080" preserveAspectRatio="xMidYMid meet" version="1.0"><defs><clipPath id="e473796f01"><path d="M 0.191406 0.378906 L 734.667969 0.378906 L 734.667969 734.839844 L 0.191406 734.839844 Z M 0.191406 0.378906 " clip-rule="nonzero"/></clipPath><clipPath id="13da6d80ee"><path d="M 166.945312 225.914062 L 274.992188 225.914062 L 274.992188 532 L 166.945312 532 Z M 166.945312 225.914062 " clip-rule="nonzero"/></clipPath><clipPath id="a88b029eb2"><path d="M 185.847656 225.914062 L 256.09375 225.914062 C 266.53125 225.914062 274.992188 234.375 274.992188 244.8125 L 274.992188 513.046875 C 274.992188 523.484375 266.53125 531.945312 256.09375 531.945312 L 185.847656 531.945312 C 175.410156 531.945312 166.945312 523.484375 166.945312 513.046875 L 166.945312 244.8125 C 166.945312 234.375 175.410156 225.914062 185.847656 225.914062 Z M 185.847656 225.914062 " clip-rule="nonzero"/></clipPath><clipPath id="763fc44ee4"><path d="M 0.945312 0.914062 L 108.992188 0.914062 L 108.992188 307 L 0.945312 307 Z M 0.945312 0.914062 " clip-rule="nonzero"/></clipPath><clipPath id="a397709467"><path d="M 19.847656 0.914062 L 90.09375 0.914062 C 100.53125 0.914062 108.992188 9.375 108.992188 19.8125 L 108.992188 288.046875 C 108.992188 298.484375 100.53125 306.945312 90.09375 306.945312 L 19.847656 306.945312 C 9.410156 306.945312 0.945312 298.484375 0.945312 288.046875 L 0.945312 19.8125 C 0.945312 9.375 9.410156 0.914062 19.847656 0.914062 Z M 19.847656 0.914062 " clip-rule="nonzero"/></clipPath><clipPath id="42cbe3e2ff"><rect x="0" width="109" y="0" height="307"/></clipPath><clipPath id="b9331a49da"><path d="M 230 211 L 543 211 L 543 524 L 230 524 Z M 230 211 " clip-rule="nonzero"/></clipPath><clipPath id="53d534b791"><path d="M 474.363281 203.207031 L 550.765625 279.609375 L 298.585938 531.789062 L 222.183594 455.386719 Z M 474.363281 203.207031 " clip-rule="nonzero"/></clipPath><clipPath id="f96cf1df05"><path d="M 487.730469 216.574219 L 537.398438 266.242188 C 544.78125 273.625 544.78125 285.589844 537.398438 292.972656 L 312.160156 518.210938 C 304.78125 525.59375 292.8125 525.59375 285.429688 518.210938 L 235.761719 468.539062 C 228.378906 461.160156 228.378906 449.191406 235.761719 441.8125 L 461 216.574219 C 468.378906 209.191406 480.347656 209.191406 487.730469 216.574219 Z M 487.730469 216.574219 " clip-rule="nonzero"/></clipPath><clipPath id="03d802ce98"><path d="M 0 0 L 313 0 L 313 313 L 0 313 Z M 0 0 " clip-rule="nonzero"/></clipPath><clipPath id="1cd6426dc7"><path d="M 244.363281 -7.792969 L 320.765625 68.609375 L 68.585938 320.789062 L -7.816406 244.386719 Z M 244.363281 -7.792969 " clip-rule="nonzero"/></clipPath><clipPath id="3c39d6aa67"><path d="M 257.730469 5.574219 L 307.398438 55.242188 C 314.78125 62.625 314.78125 74.589844 307.398438 81.972656 L 82.160156 307.210938 C 74.78125 314.59375 62.8125 314.59375 55.429688 307.210938 L 5.761719 257.539062 C -1.621094 250.160156 -1.621094 238.191406 5.761719 230.8125 L 231 5.574219 C 238.378906 -1.808594 250.347656 -1.808594 257.730469 5.574219 Z M 257.730469 5.574219 " clip-rule="nonzero"/></clipPath><clipPath id="c85fbe14a0"><rect x="0" width="313" y="0" height="313"/></clipPath><clipPath id="7d418fe443"><path d="M 214.589844 426.730469 L 320.621094 426.730469 L 320.621094 531.945312 L 214.589844 531.945312 Z M 214.589844 426.730469 " clip-rule="nonzero"/></clipPath><clipPath id="bb16715c66"><path d="M 320.621094 464.53125 L 320.621094 494.140625 C 320.621094 515.019531 303.699219 531.945312 282.820312 531.945312 L 252.585938 531.945312 C 231.710938 531.945312 214.785156 515.019531 214.785156 494.140625 L 214.785156 464.53125 C 214.785156 443.65625 231.710938 426.730469 252.585938 426.730469 L 282.820312 426.730469 C 303.699219 426.730469 320.621094 443.65625 320.621094 464.53125 Z M 320.621094 464.53125 " clip-rule="nonzero"/></clipPath><clipPath id="4b9d45cd33"><path d="M 0.640625 0.730469 L 106.621094 0.730469 L 106.621094 105.945312 L 0.640625 105.945312 Z M 0.640625 0.730469 " clip-rule="nonzero"/></clipPath><clipPath id="d8a9e8a11c"><path d="M 106.621094 38.53125 L 106.621094 68.140625 C 106.621094 89.019531 89.699219 105.945312 68.820312 105.945312 L 38.585938 105.945312 C 17.710938 105.945312 0.785156 89.019531 0.785156 68.140625 L 0.785156 38.53125 C 0.785156 17.65625 17.710938 0.730469 38.585938 0.730469 L 68.820312 0.730469 C 89.699219 0.730469 106.621094 17.65625 106.621094 38.53125 Z M 106.621094 38.53125 " clip-rule="nonzero"/></clipPath><clipPath id="d9423a7ff2"><rect x="0" width="107" y="0" height="106"/></clipPath><clipPath id="afd3b1b141"><path d="M 436.3125 425.578125 L 568 425.578125 L 568 531.535156 L 436.3125 531.535156 Z M 436.3125 425.578125 " clip-rule="nonzero"/></clipPath><clipPath id="e13ff151f4"><path d="M 530.042969 531.535156 L 474.15625 531.535156 C 464.132812 531.535156 454.523438 527.554688 447.4375 520.464844 C 440.347656 513.378906 436.367188 503.769531 436.367188 493.746094 L 436.367188 463.777344 C 436.367188 453.753906 440.347656 444.144531 447.4375 437.058594 C 454.523438 429.96875 464.132812 425.988281 474.15625 425.988281 L 530.042969 425.988281 C 540.0625 425.988281 549.675781 429.96875 556.761719 437.058594 C 563.847656 444.144531 567.828125 453.753906 567.828125 463.777344 L 567.828125 493.746094 C 567.828125 503.769531 563.847656 513.378906 556.761719 520.464844 C 549.675781 527.554688 540.0625 531.535156 530.042969 531.535156 Z M 530.042969 531.535156 " clip-rule="nonzero"/></clipPath><clipPath id="5994dd3354"><path d="M 0.3125 0.960938 L 131.921875 0.960938 L 131.921875 106.535156 L 0.3125 106.535156 Z M 0.3125 0.960938 " clip-rule="nonzero"/></clipPath><clipPath id="d10fe17eff"><path d="M 94.042969 106.535156 L 38.15625 106.535156 C 28.132812 106.535156 18.523438 102.554688 11.4375 95.464844 C 4.347656 88.378906 0.367188 78.769531 0.367188 68.746094 L 0.367188 38.777344 C 0.367188 28.753906 4.347656 19.144531 11.4375 12.058594 C 18.523438 4.96875 28.132812 0.988281 38.15625 0.988281 L 94.042969 0.988281 C 104.0625 0.988281 113.675781 4.96875 120.761719 12.058594 C 127.847656 19.144531 131.828125 28.753906 131.828125 38.777344 L 131.828125 68.746094 C 131.828125 78.769531 127.847656 88.378906 120.761719 95.464844 C 113.675781 102.554688 104.0625 106.535156 94.042969 106.535156 Z M 94.042969 106.535156 " clip-rule="nonzero"/></clipPath><clipPath id="2e66fb924e"><rect x="0" width="132" y="0" height="107"/></clipPath><clipPath id="358dc03617"><path d="M 271 397 L 283 397 L 283 407 L 271 407 Z M 271 397 " clip-rule="nonzero"/></clipPath><clipPath id="365e625304"><path d="M 271.089844 397.207031 L 280.121094 394.511719 L 282.945312 403.964844 L 273.910156 406.660156 Z M 271.089844 397.207031 " clip-rule="nonzero"/></clipPath><clipPath id="2e7af81506"><path d="M 282.9375 403.945312 L 273.90625 406.640625 L 271.089844 397.207031 Z M 282.9375 403.945312 " clip-rule="nonzero"/></clipPath><clipPath id="13db2d79af"><path d="M 0.0390625 0.160156 L 12 0.160156 L 12 9.761719 L 0.0390625 9.761719 Z M 0.0390625 0.160156 " clip-rule="nonzero"/></clipPath><clipPath id="d0a03dc94b"><path d="M 0.0898438 0.207031 L 9.121094 -2.488281 L 11.945312 6.964844 L 2.910156 9.660156 Z M 0.0898438 0.207031 " clip-rule="nonzero"/></clipPath><clipPath id="bb0e759560"><path d="M 11.9375 6.945312 L 2.90625 9.640625 L 0.0898438 0.207031 Z M 11.9375 6.945312 " clip-rule="nonzero"/></clipPath><clipPath id="8c18a98bc4"><rect x="0" width="12" y="0" height="10"/></clipPath><clipPath id="7359fdd05b"><path d="M 269 392 L 285 392 L 285 402 L 269 402 Z M 269 392 " clip-rule="nonzero"/></clipPath><clipPath id="aba9be4c8a"><path d="M 273.90625 405.058594 L 269.492188 394.429688 L 280.117188 390.015625 L 284.53125 400.644531 Z M 273.90625 405.058594 " clip-rule="nonzero"/></clipPath><clipPath id="7c745f8bd5"><path d="M 284.53125 400.644531 C 281.734375 401.804688 278.527344 401.808594 275.726562 400.652344 C 272.921875 399.496094 270.652344 397.226562 269.492188 394.429688 L 274.914062 392.175781 C 275.480469 393.546875 276.59375 394.660156 277.964844 395.226562 C 279.339844 395.792969 280.910156 395.789062 282.28125 395.222656 Z M 284.53125 400.644531 " clip-rule="nonzero"/></clipPath><clipPath id="6329c83de0"><path d="M 0.359375 0.121094 L 15.71875 0.121094 L 15.71875 9.960938 L 0.359375 9.960938 Z M 0.359375 0.121094 " clip-rule="nonzero"/></clipPath><clipPath id="dd16193732"><path d="M 4.90625 13.058594 L 0.492188 2.429688 L 11.117188 -1.984375 L 15.53125 8.644531 Z M 4.90625 13.058594 " clip-rule="nonzero"/></clipPath><clipPath id="432177b184"><path d="M 15.53125 8.644531 C 12.734375 9.804688 9.527344 9.808594 6.726562 8.652344 C 3.921875 7.496094 1.652344 5.226562 0.492188 2.429688 L 5.914062 0.175781 C 6.480469 1.546875 7.59375 2.660156 8.964844 3.226562 C 10.339844 3.792969 11.910156 3.789062 13.28125 3.222656 Z M 15.53125 8.644531 " clip-rule="nonzero"/></clipPath><clipPath id="8d6bade5e0"><rect x="0" width="16" y="0" height="10"/></clipPath><clipPath id="88f5728843"><path d="M 305 203 L 551 203 L 551 449 L 305 449 Z M 305 203 " clip-rule="nonzero"/></clipPath><clipPath id="5e512f28c3"><path d="M 474.363281 203.207031 L 550.765625 279.609375 L 381.535156 448.835938 L 305.136719 372.433594 Z M 474.363281 203.207031 " clip-rule="nonzero"/></clipPath><clipPath id="2b3958d47d"><path d="M 0.121094 0 L 245.878906 0 L 245.878906 246 L 0.121094 246 Z M 0.121094 0 " clip-rule="nonzero"/></clipPath><clipPath id="e4865fdd8d"><path d="M 169.363281 0.207031 L 245.765625 76.609375 L 76.535156 245.835938 L 0.136719 169.433594 Z M 169.363281 0.207031 " clip-rule="nonzero"/></clipPath><clipPath id="cb84b2b8fd"><rect x="0" width="246" y="0" height="246"/></clipPath><clipPath id="220df981ae"><rect x="0" width="735" y="0" height="735"/></clipPath></defs><g transform="matrix(1, 0, 0, 1, 352, 37)"><g clip-path="url(#220df981ae)"><g clip-path="url(#e473796f01)"><path fill="#ffffff" d="M 182.058594 0.378906 L 552.71875 0.378906 C 555.695312 0.378906 558.667969 0.449219 561.640625 0.597656 C 564.613281 0.742188 567.582031 0.960938 570.542969 1.253906 C 573.507812 1.542969 576.460938 1.910156 579.402344 2.34375 C 582.347656 2.78125 585.277344 3.289062 588.199219 3.871094 C 591.117188 4.453125 594.019531 5.105469 596.90625 5.828125 C 599.796875 6.550781 602.664062 7.34375 605.511719 8.207031 C 608.359375 9.074219 611.183594 10.003906 613.988281 11.007812 C 616.789062 12.011719 619.566406 13.082031 622.316406 14.222656 C 625.066406 15.359375 627.785156 16.566406 630.476562 17.839844 C 633.167969 19.109375 635.824219 20.449219 638.449219 21.851562 C 641.074219 23.253906 643.664062 24.722656 646.214844 26.25 C 648.769531 27.78125 651.285156 29.375 653.757812 31.027344 C 656.234375 32.679688 658.664062 34.394531 661.058594 36.167969 C 663.449219 37.941406 665.792969 39.769531 668.09375 41.660156 C 670.394531 43.546875 672.648438 45.492188 674.851562 47.488281 C 677.058594 49.488281 679.214844 51.539062 681.316406 53.644531 C 683.421875 55.75 685.476562 57.90625 687.472656 60.109375 C 689.472656 62.316406 691.414062 64.570312 693.304688 66.871094 C 695.191406 69.171875 697.023438 71.515625 698.796875 73.90625 C 700.570312 76.296875 702.28125 78.730469 703.9375 81.203125 C 705.589844 83.679688 707.179688 86.195312 708.710938 88.746094 C 710.242188 91.300781 711.707031 93.886719 713.113281 96.511719 C 714.515625 99.136719 715.851562 101.796875 717.125 104.488281 C 718.398438 107.175781 719.601562 109.898438 720.742188 112.648438 C 721.882812 115.398438 722.953125 118.171875 723.953125 120.976562 C 724.957031 123.777344 725.890625 126.605469 726.753906 129.453125 C 727.621094 132.300781 728.414062 135.167969 729.136719 138.054688 C 729.859375 140.941406 730.511719 143.84375 731.089844 146.765625 C 731.671875 149.683594 732.179688 152.617188 732.617188 155.558594 C 733.054688 158.503906 733.417969 161.457031 733.710938 164.417969 C 734.003906 167.382812 734.222656 170.347656 734.367188 173.320312 C 734.511719 176.292969 734.585938 179.269531 734.585938 182.246094 L 734.585938 552.90625 C 734.585938 555.882812 734.511719 558.855469 734.367188 561.828125 C 734.222656 564.800781 734.003906 567.769531 733.710938 570.730469 C 733.417969 573.691406 733.054688 576.644531 732.617188 579.589844 C 732.179688 582.535156 731.671875 585.464844 731.09375 588.386719 C 730.511719 591.304688 729.859375 594.207031 729.136719 597.09375 C 728.414062 599.980469 727.621094 602.851562 726.753906 605.699219 C 725.890625 608.546875 724.957031 611.371094 723.953125 614.175781 C 722.953125 616.976562 721.882812 619.753906 720.742188 622.503906 C 719.601562 625.253906 718.398438 627.972656 717.125 630.664062 C 715.851562 633.355469 714.515625 636.011719 713.113281 638.636719 C 711.707031 641.261719 710.242188 643.851562 708.710938 646.402344 C 707.179688 648.957031 705.589844 651.46875 703.9375 653.945312 C 702.28125 656.421875 700.570312 658.851562 698.796875 661.242188 C 697.023438 663.632812 695.191406 665.980469 693.304688 668.28125 C 691.414062 670.582031 689.472656 672.835938 687.472656 675.039062 C 685.476562 677.246094 683.421875 679.402344 681.316406 681.503906 C 679.214844 683.609375 677.058594 685.660156 674.851562 687.660156 C 672.648438 689.660156 670.394531 691.601562 668.09375 693.492188 C 665.792969 695.378906 663.449219 697.210938 661.058594 698.984375 C 658.667969 700.753906 656.234375 702.46875 653.757812 704.121094 C 651.285156 705.777344 648.769531 707.367188 646.214844 708.898438 C 643.664062 710.429688 641.074219 711.894531 638.449219 713.296875 C 635.824219 714.703125 633.167969 716.039062 630.476562 717.3125 C 627.785156 718.585938 625.066406 719.789062 622.316406 720.929688 C 619.566406 722.066406 616.789062 723.140625 613.988281 724.140625 C 611.183594 725.144531 608.359375 726.078125 605.511719 726.941406 C 602.664062 727.804688 599.796875 728.601562 596.90625 729.324219 C 594.019531 730.046875 591.117188 730.699219 588.199219 731.277344 C 585.277344 731.859375 582.347656 732.367188 579.402344 732.804688 C 576.460938 733.242188 573.507812 733.605469 570.542969 733.898438 C 567.582031 734.1875 564.613281 734.40625 561.640625 734.554688 C 558.667969 734.699219 555.695312 734.773438 552.71875 734.773438 L 182.058594 734.773438 C 179.082031 734.773438 176.109375 734.699219 173.136719 734.554688 C 170.164062 734.410156 167.195312 734.1875 164.234375 733.898438 C 161.269531 733.605469 158.316406 733.242188 155.375 732.804688 C 152.429688 732.367188 149.496094 731.859375 146.578125 731.277344 C 143.660156 730.699219 140.753906 730.046875 137.867188 729.324219 C 134.980469 728.601562 132.113281 727.804688 129.265625 726.941406 C 126.417969 726.078125 123.589844 725.144531 120.789062 724.140625 C 117.988281 723.140625 115.210938 722.070312 112.460938 720.929688 C 109.710938 719.789062 106.992188 718.585938 104.300781 717.3125 C 101.609375 716.039062 98.953125 714.703125 96.328125 713.296875 C 93.703125 711.894531 91.113281 710.429688 88.558594 708.898438 C 86.007812 707.367188 83.492188 705.777344 81.019531 704.121094 C 78.542969 702.46875 76.109375 700.757812 73.71875 698.984375 C 71.328125 697.210938 68.984375 695.378906 66.683594 693.492188 C 64.382812 691.601562 62.128906 689.660156 59.921875 687.660156 C 57.71875 685.660156 55.5625 683.609375 53.457031 681.503906 C 51.355469 679.402344 49.300781 677.246094 47.304688 675.039062 C 45.304688 672.835938 43.359375 670.582031 41.472656 668.28125 C 39.585938 665.980469 37.753906 663.632812 35.980469 661.242188 C 34.207031 658.851562 32.496094 656.421875 30.839844 653.945312 C 29.1875 651.46875 27.59375 648.957031 26.066406 646.402344 C 24.535156 643.851562 23.066406 641.261719 21.664062 638.636719 C 20.261719 636.011719 18.925781 633.355469 17.652344 630.664062 C 16.378906 627.972656 15.171875 625.253906 14.035156 622.503906 C 12.894531 619.753906 11.824219 616.976562 10.820312 614.175781 C 9.820312 611.371094 8.886719 608.546875 8.019531 605.699219 C 7.15625 602.851562 6.363281 599.980469 5.640625 597.09375 C 4.917969 594.207031 4.265625 591.304688 3.683594 588.386719 C 3.105469 585.464844 2.59375 582.535156 2.160156 579.589844 C 1.722656 576.644531 1.359375 573.691406 1.066406 570.730469 C 0.773438 567.769531 0.554688 564.800781 0.410156 561.828125 C 0.261719 558.855469 0.191406 555.882812 0.191406 552.90625 L 0.191406 182.246094 C 0.191406 179.269531 0.261719 176.292969 0.410156 173.320312 C 0.554688 170.347656 0.773438 167.382812 1.066406 164.417969 C 1.359375 161.457031 1.722656 158.503906 2.160156 155.558594 C 2.59375 152.617188 3.105469 149.683594 3.683594 146.765625 C 4.265625 143.84375 4.917969 140.941406 5.640625 138.054688 C 6.363281 135.167969 7.15625 132.300781 8.019531 129.453125 C 8.886719 126.605469 9.820312 123.777344 10.820312 120.976562 C 11.824219 118.171875 12.894531 115.398438 14.035156 112.648438 C 15.171875 109.898438 16.378906 107.175781 17.652344 104.488281 C 18.925781 101.796875 20.261719 99.136719 21.664062 96.511719 C 23.066406 93.886719 24.535156 91.300781 26.066406 88.746094 C 27.59375 86.195312 29.1875 83.679688 30.839844 81.203125 C 32.496094 78.730469 34.207031 76.296875 35.980469 73.90625 C 37.753906 71.515625 39.585938 69.171875 41.472656 66.871094 C 43.359375 64.570312 45.304688 62.316406 47.304688 60.109375 C 49.300781 57.90625 51.355469 55.75 53.457031 53.644531 C 55.5625 51.539062 57.71875 49.488281 59.921875 47.488281 C 62.128906 45.492188 64.382812 43.546875 66.683594 41.660156 C 68.984375 39.769531 71.328125 37.941406 73.71875 36.167969 C 76.109375 34.394531 78.542969 32.679688 81.019531 31.027344 C 83.492188 29.375 86.007812 27.78125 88.558594 26.25 C 91.113281 24.722656 93.703125 23.253906 96.328125 21.851562 C 98.953125 20.449219 101.609375 19.109375 104.300781 17.839844 C 106.992188 16.566406 109.710938 15.359375 112.460938 14.222656 C 115.210938 13.082031 117.988281 12.011719 120.789062 11.007812 C 123.589844 10.003906 126.417969 9.074219 129.265625 8.207031 C 132.113281 7.34375 134.980469 6.550781 137.867188 5.828125 C 140.753906 5.105469 143.660156 4.453125 146.578125 3.871094 C 149.496094 3.289062 152.429688 2.78125 155.375 2.34375 C 158.316406 1.910156 161.269531 1.542969 164.234375 1.253906 C 167.195312 0.960938 170.164062 0.742188 173.136719 0.597656 C 176.109375 0.449219 179.082031 0.378906 182.058594 0.378906 Z M 182.058594 0.378906 " fill-opacity="1" fill-rule="nonzero"/></g><g clip-path="url(#13da6d80ee)"><g clip-path="url(#a88b029eb2)"><g transform="matrix(1, 0, 0, 1, 166, 225)"><g clip-path="url(#42cbe3e2ff)"><g clip-path="url(#763fc44ee4)"><g clip-path="url(#a397709467)"><path fill="#000000" d="M 0.945312 0.914062 L 108.992188 0.914062 L 108.992188 306.902344 L 0.945312 306.902344 Z M 0.945312 0.914062 " fill-opacity="1" fill-rule="nonzero"/></g></g></g></g></g></g><g clip-path="url(#b9331a49da)"><g clip-path="url(#53d534b791)"><g clip-path="url(#f96cf1df05)"><g transform="matrix(1, 0, 0, 1, 230, 211)"><g clip-path="url(#c85fbe14a0)"><g clip-path="url(#03d802ce98)"><g clip-path="url(#1cd6426dc7)"><g clip-path="url(#3c39d6aa67)"><path fill="#000000" d="M 244.363281 -7.792969 L 320.765625 68.609375 L 68.882812 320.488281 L -7.515625 244.089844 Z M 244.363281 -7.792969 " fill-opacity="1" fill-rule="nonzero"/></g></g></g></g></g></g></g></g><g clip-path="url(#7d418fe443)"><g clip-path="url(#bb16715c66)"><g transform="matrix(1, 0, 0, 1, 214, 426)"><g clip-path="url(#d9423a7ff2)"><g clip-path="url(#4b9d45cd33)"><g clip-path="url(#d8a9e8a11c)"><path fill="#000000" d="M 106.621094 0.730469 L 106.621094 105.945312 L 0.589844 105.945312 L 0.589844 0.730469 Z M 106.621094 0.730469 " fill-opacity="1" fill-rule="nonzero"/></g></g></g></g></g></g><g clip-path="url(#afd3b1b141)"><g clip-path="url(#e13ff151f4)"><g transform="matrix(1, 0, 0, 1, 436, 425)"><g clip-path="url(#2e66fb924e)"><g clip-path="url(#5994dd3354)"><g clip-path="url(#d10fe17eff)"><path fill="#000000" d="M 131.828125 0.988281 L 131.828125 106.535156 L 0.3125 106.535156 L 0.3125 0.988281 Z M 131.828125 0.988281 " fill-opacity="1" fill-rule="nonzero"/></g></g></g></g></g></g><g clip-path="url(#358dc03617)"><g clip-path="url(#365e625304)"><g clip-path="url(#2e7af81506)"><g transform="matrix(1, 0, 0, 1, 271, 397)"><g clip-path="url(#8c18a98bc4)"><g clip-path="url(#13db2d79af)"><g clip-path="url(#d0a03dc94b)"><g clip-path="url(#bb0e759560)"><path fill="#000000" d="M 0.0898438 0.207031 L 9.121094 -2.488281 L 11.933594 6.929688 L 2.902344 9.625 Z M 0.0898438 0.207031 " fill-opacity="1" fill-rule="nonzero"/></g></g></g></g></g></g></g></g><g clip-path="url(#7359fdd05b)"><g clip-path="url(#aba9be4c8a)"><g clip-path="url(#7c745f8bd5)"><g transform="matrix(1, 0, 0, 1, 269, 392)"><g clip-path="url(#8d6bade5e0)"><g clip-path="url(#6329c83de0)"><g clip-path="url(#dd16193732)"><g clip-path="url(#432177b184)"><path fill="#000000" d="M 4.90625 13.058594 L 0.492188 2.429688 L 11.117188 -1.984375 L 15.53125 8.644531 Z M 4.90625 13.058594 " fill-opacity="1" fill-rule="nonzero"/></g></g></g></g></g></g></g></g><g clip-path="url(#88f5728843)"><g clip-path="url(#5e512f28c3)"><g transform="matrix(1, 0, 0, 1, 305, 203)"><g clip-path="url(#cb84b2b8fd)"><g clip-path="url(#2b3958d47d)"><g clip-path="url(#e4865fdd8d)"><path fill="#000000" d="M 169.363281 0.207031 L 245.765625 76.609375 L 76.550781 245.820312 L 0.148438 169.421875 Z M 169.363281 0.207031 " fill-opacity="1" fill-rule="nonzero"/></g></g></g></g></g></g></g></g></svg>